<?xml version="1.0" encoding="utf-8" standalone="no"?>
<!DOCTYPE svg PUBLIC "-//W3C//DTD SVG 1.1//EN"
  "http://www.w3.org/Graphics/SVG/1.1/DTD/svg11.dtd">
<svg xmlns:xlink="http://www.w3.org/1999/xlink" width="234pt" height="324pt" viewBox="0 0 234 324" xmlns="http://www.w3.org/2000/svg" version="1.1">
 <metadata>
  <rdf:RDF xmlns:dc="http://purl.org/dc/elements/1.1/" xmlns:cc="http://creativecommons.org/ns#" xmlns:rdf="http://www.w3.org/1999/02/22-rdf-syntax-ns#">
   <cc:Work>
    <dc:type rdf:resource="http://purl.org/dc/dcmitype/StillImage"/>
    <dc:date>2026-02-02T17:00:19.112836</dc:date>
    <dc:format>image/svg+xml</dc:format>
    <dc:creator>
     <cc:Agent>
      <dc:title>Matplotlib v3.7.2, https://matplotlib.org/</dc:title>
     </cc:Agent>
    </dc:creator>
   </cc:Work>
  </rdf:RDF>
 </metadata>
 <defs>
  <style type="text/css">*{stroke-linejoin: round; stroke-linecap: butt}</style>
 </defs>
 <g id="figure_1">
  <g id="patch_1">
   <path d="M 0 324 
L 234 324 
L 234 0 
L 0 0 
z
" style="fill: #fbf8ff"/>
  </g>
  <g id="axes_1">
   <g id="patch_2">
    <path d="M 47.09 133.511111 
L 221.04 133.511111 
L 221.04 12.96 
L 47.09 12.96 
z
" style="fill: #ffffff"/>
   </g>
   <g id="matplotlib.axis_1">
    <g id="xtick_1">
     <g id="line2d_1">
      <defs>
       <path id="m063a6ce42e" d="M 0 0 
L 0 3.5 
" style="stroke: #000000; stroke-width: 0.8"/>
      </defs>
      <g>
       <use xlink:href="#m063a6ce42e" x="54.677351" y="133.511111" style="stroke: #000000; stroke-width: 0.8"/>
      </g>
     </g>
    </g>
    <g id="xtick_2">
     <g id="line2d_2">
      <g>
       <use xlink:href="#m063a6ce42e" x="86.624091" y="133.511111" style="stroke: #000000; stroke-width: 0.8"/>
      </g>
     </g>
    </g>
    <g id="xtick_3">
     <g id="line2d_3">
      <g>
       <use xlink:href="#m063a6ce42e" x="118.570831" y="133.511111" style="stroke: #000000; stroke-width: 0.8"/>
      </g>
     </g>
    </g>
    <g id="xtick_4">
     <g id="line2d_4">
      <g>
       <use xlink:href="#m063a6ce42e" x="150.517571" y="133.511111" style="stroke: #000000; stroke-width: 0.8"/>
      </g>
     </g>
    </g>
    <g id="xtick_5">
     <g id="line2d_5">
      <g>
       <use xlink:href="#m063a6ce42e" x="182.464311" y="133.511111" style="stroke: #000000; stroke-width: 0.8"/>
      </g>
     </g>
    </g>
    <g id="xtick_6">
     <g id="line2d_6">
      <g>
       <use xlink:href="#m063a6ce42e" x="214.411051" y="133.511111" style="stroke: #000000; stroke-width: 0.8"/>
      </g>
     </g>
    </g>
   </g>
   <g id="matplotlib.axis_2">
    <g id="ytick_1">
     <g id="line2d_7">
      <path d="M 47.09 108.579559 
L 221.04 108.579559 
" clip-path="url(#p2ca2578bca)" style="fill: none; stroke-dasharray: 0.8,1.32; stroke-dashoffset: 0; stroke: #b0b0b0; stroke-opacity: 0.6; stroke-width: 0.8"/>
     </g>
     <g id="line2d_8">
      <defs>
       <path id="mbe684c8bc9" d="M 0 0 
L -3.5 0 
" style="stroke: #000000; stroke-width: 0.8"/>
      </defs>
      <g>
       <use xlink:href="#mbe684c8bc9" x="47.09" y="108.579559" style="stroke: #000000; stroke-width: 0.8"/>
      </g>
     </g>
     <g id="text_1">
      <!-- $\mathdefault{10^{-1}}$ -->
      <g transform="translate(25.61 112.123934) scale(0.08 -0.08)">
       <defs>
        <path id="TimesNewRomanPSMT-31" d="M 750 3822 
L 1781 4325 
L 1884 4325 
L 1884 747 
Q 1884 391 1914 303 
Q 1944 216 2037 169 
Q 2131 122 2419 116 
L 2419 0 
L 825 0 
L 825 116 
Q 1125 122 1212 167 
Q 1300 213 1334 289 
Q 1369 366 1369 747 
L 1369 3034 
Q 1369 3497 1338 3628 
Q 1316 3728 1258 3775 
Q 1200 3822 1119 3822 
Q 1003 3822 797 3725 
L 750 3822 
z
" transform="scale(0.015625)"/>
        <path id="TimesNewRomanPSMT-30" d="M 231 2094 
Q 231 2819 450 3342 
Q 669 3866 1031 4122 
Q 1313 4325 1613 4325 
Q 2100 4325 2488 3828 
Q 2972 3213 2972 2159 
Q 2972 1422 2759 906 
Q 2547 391 2217 158 
Q 1888 -75 1581 -75 
Q 975 -75 572 641 
Q 231 1244 231 2094 
z
M 844 2016 
Q 844 1141 1059 588 
Q 1238 122 1591 122 
Q 1759 122 1940 273 
Q 2122 425 2216 781 
Q 2359 1319 2359 2297 
Q 2359 3022 2209 3506 
Q 2097 3866 1919 4016 
Q 1791 4119 1609 4119 
Q 1397 4119 1231 3928 
Q 1006 3669 925 3112 
Q 844 2556 844 2016 
z
" transform="scale(0.015625)"/>
        <path id="TimesNewRomanPSMT-2212" d="M 3484 2000 
L 116 2000 
L 116 2256 
L 3484 2256 
L 3484 2000 
z
" transform="scale(0.015625)"/>
       </defs>
       <use xlink:href="#TimesNewRomanPSMT-31" transform="translate(0 0.582813)"/>
       <use xlink:href="#TimesNewRomanPSMT-30" transform="translate(50 0.582813)"/>
       <use xlink:href="#TimesNewRomanPSMT-2212" transform="translate(101.502813 60.695312) scale(0.7)"/>
       <use xlink:href="#TimesNewRomanPSMT-31" transform="translate(140.980352 60.695312) scale(0.7)"/>
      </g>
     </g>
    </g>
    <g id="ytick_2">
     <g id="line2d_9">
      <path d="M 47.09 74.767907 
L 221.04 74.767907 
" clip-path="url(#p2ca2578bca)" style="fill: none; stroke-dasharray: 0.8,1.32; stroke-dashoffset: 0; stroke: #b0b0b0; stroke-opacity: 0.6; stroke-width: 0.8"/>
     </g>
     <g id="line2d_10">
      <g>
       <use xlink:href="#mbe684c8bc9" x="47.09" y="74.767907" style="stroke: #000000; stroke-width: 0.8"/>
      </g>
     </g>
     <g id="text_2">
      <!-- $\mathdefault{10^{0}}$ -->
      <g transform="translate(28.81 78.312282) scale(0.08 -0.08)">
       <use xlink:href="#TimesNewRomanPSMT-31" transform="translate(0 0.582813)"/>
       <use xlink:href="#TimesNewRomanPSMT-30" transform="translate(50 0.582813)"/>
       <use xlink:href="#TimesNewRomanPSMT-30" transform="translate(101.502813 60.695312) scale(0.7)"/>
      </g>
     </g>
    </g>
    <g id="ytick_3">
     <g id="line2d_11">
      <path d="M 47.09 40.956255 
L 221.04 40.956255 
" clip-path="url(#p2ca2578bca)" style="fill: none; stroke-dasharray: 0.8,1.32; stroke-dashoffset: 0; stroke: #b0b0b0; stroke-opacity: 0.6; stroke-width: 0.8"/>
     </g>
     <g id="line2d_12">
      <g>
       <use xlink:href="#mbe684c8bc9" x="47.09" y="40.956255" style="stroke: #000000; stroke-width: 0.8"/>
      </g>
     </g>
     <g id="text_3">
      <!-- $\mathdefault{10^{1}}$ -->
      <g transform="translate(28.81 44.50063) scale(0.08 -0.08)">
       <use xlink:href="#TimesNewRomanPSMT-31" transform="translate(0 0.582813)"/>
       <use xlink:href="#TimesNewRomanPSMT-30" transform="translate(50 0.582813)"/>
       <use xlink:href="#TimesNewRomanPSMT-31" transform="translate(101.502813 60.695312) scale(0.7)"/>
      </g>
     </g>
    </g>
    <g id="ytick_4">
     <g id="line2d_13">
      <defs>
       <path id="m0e743388af" d="M 0 0 
L -2 0 
" style="stroke: #000000; stroke-width: 0.6"/>
      </defs>
      <g>
       <use xlink:href="#m0e743388af" x="47.09" y="132.212889" style="stroke: #000000; stroke-width: 0.6"/>
      </g>
     </g>
    </g>
    <g id="ytick_5">
     <g id="line2d_14">
      <g>
       <use xlink:href="#m0e743388af" x="47.09" y="126.258953" style="stroke: #000000; stroke-width: 0.6"/>
      </g>
     </g>
    </g>
    <g id="ytick_6">
     <g id="line2d_15">
      <g>
       <use xlink:href="#m0e743388af" x="47.09" y="122.034568" style="stroke: #000000; stroke-width: 0.6"/>
      </g>
     </g>
    </g>
    <g id="ytick_7">
     <g id="line2d_16">
      <g>
       <use xlink:href="#m0e743388af" x="47.09" y="118.75788" style="stroke: #000000; stroke-width: 0.6"/>
      </g>
     </g>
    </g>
    <g id="ytick_8">
     <g id="line2d_17">
      <g>
       <use xlink:href="#m0e743388af" x="47.09" y="116.080632" style="stroke: #000000; stroke-width: 0.6"/>
      </g>
     </g>
    </g>
    <g id="ytick_9">
     <g id="line2d_18">
      <g>
       <use xlink:href="#m0e743388af" x="47.09" y="113.81705" style="stroke: #000000; stroke-width: 0.6"/>
      </g>
     </g>
    </g>
    <g id="ytick_10">
     <g id="line2d_19">
      <g>
       <use xlink:href="#m0e743388af" x="47.09" y="111.856246" style="stroke: #000000; stroke-width: 0.6"/>
      </g>
     </g>
    </g>
    <g id="ytick_11">
     <g id="line2d_20">
      <g>
       <use xlink:href="#m0e743388af" x="47.09" y="110.126695" style="stroke: #000000; stroke-width: 0.6"/>
      </g>
     </g>
    </g>
    <g id="ytick_12">
     <g id="line2d_21">
      <g>
       <use xlink:href="#m0e743388af" x="47.09" y="98.401237" style="stroke: #000000; stroke-width: 0.6"/>
      </g>
     </g>
    </g>
    <g id="ytick_13">
     <g id="line2d_22">
      <g>
       <use xlink:href="#m0e743388af" x="47.09" y="92.447301" style="stroke: #000000; stroke-width: 0.6"/>
      </g>
     </g>
    </g>
    <g id="ytick_14">
     <g id="line2d_23">
      <g>
       <use xlink:href="#m0e743388af" x="47.09" y="88.222916" style="stroke: #000000; stroke-width: 0.6"/>
      </g>
     </g>
    </g>
    <g id="ytick_15">
     <g id="line2d_24">
      <g>
       <use xlink:href="#m0e743388af" x="47.09" y="84.946228" style="stroke: #000000; stroke-width: 0.6"/>
      </g>
     </g>
    </g>
    <g id="ytick_16">
     <g id="line2d_25">
      <g>
       <use xlink:href="#m0e743388af" x="47.09" y="82.26898" style="stroke: #000000; stroke-width: 0.6"/>
      </g>
     </g>
    </g>
    <g id="ytick_17">
     <g id="line2d_26">
      <g>
       <use xlink:href="#m0e743388af" x="47.09" y="80.005398" style="stroke: #000000; stroke-width: 0.6"/>
      </g>
     </g>
    </g>
    <g id="ytick_18">
     <g id="line2d_27">
      <g>
       <use xlink:href="#m0e743388af" x="47.09" y="78.044594" style="stroke: #000000; stroke-width: 0.6"/>
      </g>
     </g>
    </g>
    <g id="ytick_19">
     <g id="line2d_28">
      <g>
       <use xlink:href="#m0e743388af" x="47.09" y="76.315043" style="stroke: #000000; stroke-width: 0.6"/>
      </g>
     </g>
    </g>
    <g id="ytick_20">
     <g id="line2d_29">
      <g>
       <use xlink:href="#m0e743388af" x="47.09" y="64.589585" style="stroke: #000000; stroke-width: 0.6"/>
      </g>
     </g>
    </g>
    <g id="ytick_21">
     <g id="line2d_30">
      <g>
       <use xlink:href="#m0e743388af" x="47.09" y="58.635649" style="stroke: #000000; stroke-width: 0.6"/>
      </g>
     </g>
    </g>
    <g id="ytick_22">
     <g id="line2d_31">
      <g>
       <use xlink:href="#m0e743388af" x="47.09" y="54.411264" style="stroke: #000000; stroke-width: 0.6"/>
      </g>
     </g>
    </g>
    <g id="ytick_23">
     <g id="line2d_32">
      <g>
       <use xlink:href="#m0e743388af" x="47.09" y="51.134576" style="stroke: #000000; stroke-width: 0.6"/>
      </g>
     </g>
    </g>
    <g id="ytick_24">
     <g id="line2d_33">
      <g>
       <use xlink:href="#m0e743388af" x="47.09" y="48.457328" style="stroke: #000000; stroke-width: 0.6"/>
      </g>
     </g>
    </g>
    <g id="ytick_25">
     <g id="line2d_34">
      <g>
       <use xlink:href="#m0e743388af" x="47.09" y="46.193746" style="stroke: #000000; stroke-width: 0.6"/>
      </g>
     </g>
    </g>
    <g id="ytick_26">
     <g id="line2d_35">
      <g>
       <use xlink:href="#m0e743388af" x="47.09" y="44.232943" style="stroke: #000000; stroke-width: 0.6"/>
      </g>
     </g>
    </g>
    <g id="ytick_27">
     <g id="line2d_36">
      <g>
       <use xlink:href="#m0e743388af" x="47.09" y="42.503391" style="stroke: #000000; stroke-width: 0.6"/>
      </g>
     </g>
    </g>
    <g id="ytick_28">
     <g id="line2d_37">
      <g>
       <use xlink:href="#m0e743388af" x="47.09" y="30.777933" style="stroke: #000000; stroke-width: 0.6"/>
      </g>
     </g>
    </g>
    <g id="ytick_29">
     <g id="line2d_38">
      <g>
       <use xlink:href="#m0e743388af" x="47.09" y="24.823997" style="stroke: #000000; stroke-width: 0.6"/>
      </g>
     </g>
    </g>
    <g id="ytick_30">
     <g id="line2d_39">
      <g>
       <use xlink:href="#m0e743388af" x="47.09" y="20.599612" style="stroke: #000000; stroke-width: 0.6"/>
      </g>
     </g>
    </g>
    <g id="ytick_31">
     <g id="line2d_40">
      <g>
       <use xlink:href="#m0e743388af" x="47.09" y="17.322924" style="stroke: #000000; stroke-width: 0.6"/>
      </g>
     </g>
    </g>
    <g id="ytick_32">
     <g id="line2d_41">
      <g>
       <use xlink:href="#m0e743388af" x="47.09" y="14.645676" style="stroke: #000000; stroke-width: 0.6"/>
      </g>
     </g>
    </g>
    <g id="text_4">
     <!-- Ratio (Log) -->
     <g transform="translate(19.452187 97.815243) rotate(-90) scale(0.1 -0.1)">
      <defs>
       <path id="TimesNewRomanPS-BoldMT-52" d="M 1700 1931 
L 1700 744 
Q 1700 400 1742 311 
Q 1784 222 1890 169 
Q 1997 116 2288 116 
L 2288 0 
L 119 0 
L 119 116 
Q 413 116 517 170 
Q 622 225 664 312 
Q 706 400 706 744 
L 706 3494 
Q 706 3838 664 3927 
Q 622 4016 515 4069 
Q 409 4122 119 4122 
L 119 4238 
L 2088 4238 
Q 2856 4238 3212 4131 
Q 3569 4025 3794 3739 
Q 4019 3453 4019 3069 
Q 4019 2600 3681 2294 
Q 3466 2100 3078 2003 
L 4097 569 
Q 4297 291 4381 222 
Q 4509 125 4678 116 
L 4678 0 
L 3344 0 
L 1978 1931 
L 1700 1931 
z
M 1700 4009 
L 1700 2153 
L 1878 2153 
Q 2313 2153 2528 2233 
Q 2744 2313 2867 2520 
Q 2991 2728 2991 3063 
Q 2991 3547 2764 3778 
Q 2538 4009 2034 4009 
L 1700 4009 
z
" transform="scale(0.015625)"/>
       <path id="TimesNewRomanPS-BoldMT-61" d="M 1828 431 
Q 1294 -41 869 -41 
Q 619 -41 453 123 
Q 288 288 288 534 
Q 288 869 575 1136 
Q 863 1403 1828 1847 
L 1828 2141 
Q 1828 2472 1792 2558 
Q 1756 2644 1656 2708 
Q 1556 2772 1431 2772 
Q 1228 2772 1097 2681 
Q 1016 2625 1016 2550 
Q 1016 2484 1103 2388 
Q 1222 2253 1222 2128 
Q 1222 1975 1108 1867 
Q 994 1759 809 1759 
Q 613 1759 480 1878 
Q 347 1997 347 2156 
Q 347 2381 525 2586 
Q 703 2791 1022 2900 
Q 1341 3009 1684 3009 
Q 2100 3009 2342 2832 
Q 2584 2656 2656 2450 
Q 2700 2319 2700 1847 
L 2700 713 
Q 2700 513 2715 461 
Q 2731 409 2762 384 
Q 2794 359 2834 359 
Q 2916 359 3000 475 
L 3094 400 
Q 2938 169 2770 64 
Q 2603 -41 2391 -41 
Q 2141 -41 2000 76 
Q 1859 194 1828 431 
z
M 1828 659 
L 1828 1638 
Q 1450 1416 1266 1163 
Q 1144 994 1144 822 
Q 1144 678 1247 569 
Q 1325 484 1466 484 
Q 1622 484 1828 659 
z
" transform="scale(0.015625)"/>
       <path id="TimesNewRomanPS-BoldMT-74" d="M 1375 3991 
L 1375 2922 
L 2069 2922 
L 2069 2613 
L 1375 2613 
L 1375 809 
Q 1375 556 1398 482 
Q 1422 409 1481 364 
Q 1541 319 1591 319 
Q 1794 319 1975 628 
L 2069 559 
Q 1816 -41 1247 -41 
Q 969 -41 776 114 
Q 584 269 531 459 
Q 500 566 500 1034 
L 500 2613 
L 119 2613 
L 119 2722 
Q 513 3000 789 3306 
Q 1066 3613 1272 3991 
L 1375 3991 
z
" transform="scale(0.015625)"/>
       <path id="TimesNewRomanPS-BoldMT-69" d="M 919 4338 
Q 1122 4338 1262 4195 
Q 1403 4053 1403 3853 
Q 1403 3653 1261 3512 
Q 1119 3372 919 3372 
Q 719 3372 578 3512 
Q 438 3653 438 3853 
Q 438 4053 578 4195 
Q 719 4338 919 4338 
z
M 1356 2922 
L 1356 606 
Q 1356 297 1428 211 
Q 1500 125 1709 113 
L 1709 0 
L 131 0 
L 131 113 
Q 325 119 419 225 
Q 481 297 481 606 
L 481 2313 
Q 481 2622 409 2708 
Q 338 2794 131 2806 
L 131 2922 
L 1356 2922 
z
" transform="scale(0.015625)"/>
       <path id="TimesNewRomanPS-BoldMT-6f" d="M 1594 3009 
Q 1975 3009 2303 2812 
Q 2631 2616 2801 2253 
Q 2972 1891 2972 1459 
Q 2972 838 2656 419 
Q 2275 -88 1603 -88 
Q 944 -88 587 375 
Q 231 838 231 1447 
Q 231 2075 595 2542 
Q 959 3009 1594 3009 
z
M 1606 2788 
Q 1447 2788 1333 2667 
Q 1219 2547 1183 2192 
Q 1147 1838 1147 1206 
Q 1147 872 1191 581 
Q 1225 359 1337 243 
Q 1450 128 1594 128 
Q 1734 128 1828 206 
Q 1950 313 1991 503 
Q 2053 800 2053 1703 
Q 2053 2234 1993 2432 
Q 1934 2631 1819 2722 
Q 1738 2788 1606 2788 
z
" transform="scale(0.015625)"/>
       <path id="TimesNewRomanPS-BoldMT-20" transform="scale(0.015625)"/>
       <path id="TimesNewRomanPS-BoldMT-28" d="M 2056 4334 
L 2056 4191 
Q 1731 3978 1578 3775 
Q 1366 3494 1247 3053 
Q 1097 2506 1097 1525 
Q 1097 600 1233 87 
Q 1369 -425 1603 -741 
Q 1766 -959 2056 -1125 
L 2056 -1281 
Q 1303 -1028 779 -248 
Q 256 531 256 1544 
Q 256 2544 778 3314 
Q 1300 4084 2056 4334 
z
" transform="scale(0.015625)"/>
       <path id="TimesNewRomanPS-BoldMT-4c" d="M 4041 1488 
L 3881 0 
L 119 0 
L 119 116 
L 259 116 
Q 444 116 556 181 
Q 638 225 681 331 
Q 716 406 716 725 
L 716 3513 
Q 716 3838 681 3919 
Q 647 4000 542 4061 
Q 438 4122 259 4122 
L 119 4122 
L 119 4238 
L 2378 4238 
L 2378 4122 
L 2194 4122 
Q 2009 4122 1897 4056 
Q 1816 4013 1769 3906 
Q 1734 3831 1734 3513 
L 1734 813 
Q 1734 488 1771 398 
Q 1809 309 1919 266 
Q 1997 238 2297 238 
L 2650 238 
Q 2988 238 3213 356 
Q 3438 475 3602 731 
Q 3766 988 3913 1488 
L 4041 1488 
z
" transform="scale(0.015625)"/>
       <path id="TimesNewRomanPS-BoldMT-67" d="M 2091 2888 
L 3075 2888 
L 3075 2544 
L 2516 2544 
Q 2669 2391 2728 2266 
Q 2803 2097 2803 1913 
Q 2803 1600 2629 1370 
Q 2456 1141 2157 1011 
Q 1859 881 1628 881 
Q 1609 881 1253 897 
Q 1113 897 1017 805 
Q 922 713 922 584 
Q 922 472 1008 400 
Q 1094 328 1288 328 
L 1828 334 
Q 2484 334 2731 191 
Q 3084 -9 3084 -425 
Q 3084 -691 2921 -908 
Q 2759 -1125 2494 -1228 
Q 2091 -1381 1566 -1381 
Q 1172 -1381 847 -1304 
Q 522 -1228 381 -1092 
Q 241 -956 241 -806 
Q 241 -663 348 -548 
Q 456 -434 750 -356 
Q 344 -156 344 200 
Q 344 416 509 619 
Q 675 822 1034 972 
Q 616 1125 428 1375 
Q 241 1625 241 1953 
Q 241 2381 591 2695 
Q 941 3009 1491 3009 
Q 1781 3009 2091 2888 
z
M 1550 2816 
Q 1369 2816 1244 2633 
Q 1119 2450 1119 1875 
Q 1119 1409 1242 1236 
Q 1366 1063 1534 1063 
Q 1722 1063 1847 1234 
Q 1972 1406 1972 1903 
Q 1972 2463 1831 2666 
Q 1731 2816 1550 2816 
z
M 1366 -431 
Q 1047 -431 944 -484 
Q 766 -581 766 -747 
Q 766 -906 950 -1036 
Q 1134 -1166 1644 -1166 
Q 2078 -1166 2326 -1050 
Q 2575 -934 2575 -725 
Q 2575 -647 2528 -594 
Q 2444 -500 2273 -465 
Q 2103 -431 1366 -431 
z
" transform="scale(0.015625)"/>
       <path id="TimesNewRomanPS-BoldMT-29" d="M 78 -1281 
L 78 -1138 
Q 403 -922 556 -719 
Q 766 -438 888 0 
Q 1038 550 1038 1531 
Q 1038 2456 902 2967 
Q 766 3478 531 3794 
Q 369 4013 78 4178 
L 78 4334 
Q 831 4081 1354 3301 
Q 1878 2522 1878 1509 
Q 1878 513 1354 -257 
Q 831 -1028 78 -1281 
z
" transform="scale(0.015625)"/>
      </defs>
      <use xlink:href="#TimesNewRomanPS-BoldMT-52"/>
      <use xlink:href="#TimesNewRomanPS-BoldMT-61" x="72.216797"/>
      <use xlink:href="#TimesNewRomanPS-BoldMT-74" x="122.216797"/>
      <use xlink:href="#TimesNewRomanPS-BoldMT-69" x="155.517578"/>
      <use xlink:href="#TimesNewRomanPS-BoldMT-6f" x="183.300781"/>
      <use xlink:href="#TimesNewRomanPS-BoldMT-20" x="233.300781"/>
      <use xlink:href="#TimesNewRomanPS-BoldMT-28" x="258.300781"/>
      <use xlink:href="#TimesNewRomanPS-BoldMT-4c" x="291.601562"/>
      <use xlink:href="#TimesNewRomanPS-BoldMT-6f" x="358.300781"/>
      <use xlink:href="#TimesNewRomanPS-BoldMT-67" x="408.300781"/>
      <use xlink:href="#TimesNewRomanPS-BoldMT-29" x="458.300781"/>
     </g>
    </g>
   </g>
   <g id="line2d_42">
    <path d="M 54.996818 69.312983 
L 55.316286 81.857104 
L 55.635753 51.268817 
L 55.95522 92.122063 
L 56.274688 71.602579 
L 56.594155 71.420955 
L 56.913623 65.074291 
L 57.23309 73.811354 
L 57.552557 74.835131 
L 57.872025 78.775971 
L 58.191492 79.82044 
L 58.51096 93.446489 
L 58.830427 101.401138 
L 59.149894 90.327153 
L 59.469362 102.954409 
L 59.788829 76.800961 
L 60.108297 91.537401 
L 60.427764 85.831458 
L 60.747231 87.247899 
L 61.066699 79.158787 
L 61.386166 100.60315 
L 61.705634 66.541683 
L 62.025101 72.379308 
L 62.344568 102.481429 
L 62.664036 74.698704 
L 62.983503 75.020982 
L 63.302971 55.453201 
L 63.622438 76.728935 
L 63.941905 75.00074 
L 64.261373 72.4087 
L 64.58084 71.779935 
L 64.900308 83.331234 
L 65.219775 67.389011 
L 65.539242 61.299102 
L 65.85871 81.973609 
L 66.178177 58.457821 
L 66.497645 77.792887 
L 66.817112 104.356475 
L 67.136579 111.885071 
L 67.456047 102.749314 
L 67.775514 84.130112 
L 68.094982 80.87489 
L 68.414449 68.637075 
L 68.733916 79.512852 
L 69.053384 72.965572 
L 69.372851 97.732184 
L 69.692319 80.485862 
L 70.011786 73.121378 
L 70.331253 113.721746 
L 70.650721 74.469219 
L 70.970188 48.996379 
L 71.289656 103.782874 
L 71.609123 76.012501 
L 71.92859 73.13811 
L 72.248058 78.610051 
L 72.567525 71.436536 
L 72.886993 72.82586 
L 73.20646 69.129384 
L 73.845395 88.85251 
L 74.164862 28.060037 
L 74.48433 76.845995 
L 74.803797 69.133141 
L 75.442732 77.962663 
L 75.762199 26.321526 
L 76.401134 128.031515 
L 76.720601 65.504273 
L 77.040069 76.712798 
L 77.359536 75.661727 
L 77.679004 76.479052 
L 77.998471 74.759142 
L 78.317938 74.548233 
L 78.637406 72.147469 
L 78.956873 71.503097 
L 79.276341 73.089404 
L 79.595808 89.506037 
L 79.915275 76.773449 
L 80.234743 72.679132 
L 80.55421 75.630845 
L 80.873678 72.267058 
L 81.193145 76.267031 
L 81.512612 76.266294 
L 81.83208 74.872363 
L 82.151547 68.351043 
L 82.790482 75.090223 
L 83.109949 18.439596 
L 83.429417 74.671573 
L 83.748884 74.154629 
L 84.068352 118.025983 
L 84.387819 79.553479 
L 84.707287 81.612903 
L 85.026754 76.237352 
L 85.346221 74.873193 
L 85.665689 78.748172 
L 85.985156 90.667158 
L 86.304624 74.495051 
L 86.624091 71.764111 
L 86.943558 73.78146 
L 87.263026 73.659242 
L 87.582493 78.295104 
L 88.221428 76.535775 
L 88.540895 72.250205 
L 88.860363 79.060761 
L 89.17983 67.032822 
L 89.499298 73.303241 
L 89.818765 76.092078 
L 90.138232 71.482899 
L 90.4577 76.455078 
L 90.777167 77.557373 
L 91.096635 73.454905 
L 91.416102 73.120134 
L 91.735569 76.745368 
L 92.055037 75.317846 
L 92.374504 70.243086 
L 92.693972 71.832554 
L 93.013439 55.798693 
L 93.332906 76.677326 
L 93.652374 73.614846 
L 93.971841 76.418522 
L 94.610776 66.646285 
L 94.930243 72.886121 
L 95.249711 73.866998 
L 95.569178 75.407518 
L 95.888646 79.170418 
L 96.208113 98.078629 
L 96.52758 79.14581 
L 96.847048 75.322602 
L 97.166515 75.808778 
L 97.80545 74.473141 
L 98.124917 84.512143 
L 98.444385 74.198168 
L 98.763852 78.473275 
L 99.08332 108.396352 
L 99.402787 79.072212 
L 99.722254 84.401268 
L 100.041722 79.410492 
L 100.361189 77.893669 
L 100.680657 82.583141 
L 101.000124 77.784633 
L 101.319591 75.151649 
L 101.639059 73.900837 
L 101.958526 87.035183 
L 102.277994 75.637169 
L 102.597461 80.732366 
L 102.916928 77.994754 
L 103.236396 77.046996 
L 103.555863 88.007965 
L 103.875331 76.130284 
L 104.194798 75.494875 
L 104.514265 77.254782 
L 104.833733 74.789423 
L 105.1532 78.723954 
L 105.472668 73.064015 
L 105.792135 77.161957 
L 106.111602 70.943009 
L 106.43107 99.773178 
L 106.750537 77.512995 
L 107.070005 31.915696 
L 107.389472 77.254872 
L 107.708939 75.300948 
L 108.028407 79.414551 
L 108.347874 76.698542 
L 108.667342 77.678642 
L 108.986809 74.78625 
L 109.306276 75.738697 
L 109.625744 76.213943 
L 109.945211 76.38541 
L 110.584146 80.470331 
L 110.903613 80.917065 
L 111.542548 77.245088 
L 111.862016 77.754329 
L 112.181483 80.502347 
L 112.50095 69.180075 
L 112.820418 78.106345 
L 113.139885 73.495561 
L 113.459353 79.489709 
L 113.77882 77.630565 
L 114.098287 76.853112 
L 114.417755 75.40751 
L 114.737222 80.862026 
L 115.05669 83.082076 
L 115.376157 76.953884 
L 115.695624 74.908701 
L 116.015092 77.900274 
L 116.334559 73.421916 
L 116.654027 81.426584 
L 116.973494 74.620515 
L 117.292961 77.322687 
L 117.612429 76.901173 
L 117.931896 79.195458 
L 118.251364 77.38056 
L 118.570831 79.22616 
L 118.890298 73.285233 
L 119.209766 78.023281 
L 119.529233 71.007782 
L 119.848701 32.530843 
L 120.168168 76.634898 
L 120.487635 80.586518 
L 120.807103 79.314932 
L 121.12657 73.039761 
L 121.446038 76.443191 
L 121.765505 75.249501 
L 122.084972 73.447072 
L 122.40444 76.91058 
L 122.723907 75.754936 
L 123.043375 76.588753 
L 123.362842 110.220499 
L 123.682309 74.862201 
L 124.001777 78.254641 
L 124.321244 74.763686 
L 124.640712 77.60384 
L 124.960179 73.299901 
L 125.279646 73.672746 
L 125.599114 75.031022 
L 125.918581 78.9953 
L 126.238049 77.843243 
L 126.557516 78.480483 
L 126.876983 73.839255 
L 127.196451 82.833266 
L 127.515918 75.942877 
L 127.835386 74.978067 
L 128.47432 77.0192 
L 128.793788 74.141511 
L 129.113255 68.022407 
L 129.432723 77.482704 
L 129.75219 71.742211 
L 130.391125 77.042359 
L 130.710592 71.594159 
L 131.03006 71.970285 
L 131.349527 68.794416 
L 131.668994 70.09618 
L 131.988462 74.545888 
L 132.307929 76.18901 
L 132.946864 71.298483 
L 133.266331 76.604426 
L 133.585799 68.944813 
L 134.224734 74.271217 
L 134.544201 72.973688 
L 134.863669 73.055072 
L 135.183136 67.465545 
L 135.502603 71.782023 
L 135.822071 73.161256 
L 136.141538 68.000619 
L 136.461006 81.578808 
L 137.09994 70.352864 
L 137.419408 77.773468 
L 137.738875 36.040022 
L 138.058343 70.735616 
L 138.37781 69.356256 
L 138.697277 75.973805 
L 139.016745 77.199838 
L 139.336212 79.430365 
L 139.65568 73.752484 
L 139.975147 73.451363 
L 140.294614 72.863625 
L 140.614082 77.035259 
L 140.933549 71.708193 
L 141.253017 80.46643 
L 141.891951 69.409935 
L 142.211419 80.990709 
L 142.530886 74.546172 
L 142.850354 77.112813 
L 143.169821 80.57953 
L 143.808756 79.207124 
L 144.128223 74.514836 
L 144.447691 73.876853 
L 145.086625 89.945582 
L 145.406093 88.653362 
L 145.72556 78.639571 
L 146.045028 86.41829 
L 146.364495 77.256884 
L 146.683962 87.694177 
L 147.00343 73.960953 
L 147.322897 86.974386 
L 147.642365 85.350692 
L 147.961832 75.908787 
L 148.281299 86.496513 
L 148.600767 78.583889 
L 148.920234 78.617065 
L 149.239702 88.930677 
L 149.559169 87.148528 
L 149.878636 83.361435 
L 150.517571 86.900803 
L 150.837039 85.693109 
L 151.156506 82.441808 
L 151.475973 85.299573 
L 151.795441 90.679276 
L 152.114908 87.577498 
L 152.434376 88.773737 
L 152.753843 86.483387 
L 153.07331 80.342524 
L 153.712245 87.66101 
L 154.031713 84.25839 
L 154.35118 87.563639 
L 154.670647 81.011753 
L 154.990115 77.832431 
L 155.309582 83.601395 
L 155.62905 79.115695 
L 155.948517 87.148208 
L 156.267984 88.955253 
L 156.587452 89.230204 
L 156.906919 85.970416 
L 157.226387 80.836836 
L 157.545854 85.143515 
L 157.865321 85.266274 
L 158.184789 71.856655 
L 158.504256 77.419087 
L 158.823724 87.262472 
L 159.462658 84.172128 
L 159.782126 83.899007 
L 160.101593 87.936766 
L 160.740528 74.718687 
L 161.059995 85.227854 
L 161.379463 88.964196 
L 161.69893 81.270417 
L 162.018398 80.70699 
L 162.337865 86.498877 
L 162.657332 39.328003 
L 162.9768 83.078906 
L 163.296267 82.03215 
L 163.615735 85.153334 
L 163.935202 82.716375 
L 164.254669 83.429764 
L 164.574137 81.289704 
L 164.893604 75.049101 
L 165.213072 73.825669 
L 165.532539 81.482796 
L 165.852006 82.712184 
L 166.171474 83.209434 
L 166.490941 83.289546 
L 166.810409 78.93978 
L 167.129876 87.479808 
L 167.449343 77.8667 
L 167.768811 84.935014 
L 168.088278 83.973579 
L 168.407746 81.550554 
L 169.04668 86.712893 
L 169.366148 78.731595 
L 169.685615 79.522545 
L 170.005083 76.275164 
L 170.32455 84.186142 
L 170.644017 75.618334 
L 170.963485 85.604448 
L 171.282952 72.60176 
L 171.60242 85.104621 
L 171.921887 85.789979 
L 172.241354 82.299199 
L 172.560822 88.31856 
L 172.880289 90.313553 
L 173.199757 87.659076 
L 173.519224 79.326477 
L 173.838691 89.993916 
L 174.158159 82.477055 
L 174.477626 86.108468 
L 174.797094 87.019413 
L 175.116561 85.9106 
L 175.436028 85.862981 
L 175.755496 88.582673 
L 176.074963 89.247747 
L 176.394431 80.864003 
L 177.033365 90.406101 
L 177.352833 85.68793 
L 177.6723 90.102233 
L 177.991768 85.963742 
L 178.311235 80.285774 
L 178.630702 91.006605 
L 178.95017 84.859024 
L 179.269637 88.570945 
L 179.589105 89.730549 
L 179.908572 76.894886 
L 180.228039 84.01338 
L 180.547507 84.102339 
L 180.866974 82.348009 
L 181.186442 85.833723 
L 181.505909 86.397031 
L 181.825376 79.589719 
L 182.144844 83.371535 
L 182.464311 80.698958 
L 182.783779 83.928332 
L 183.103246 83.425768 
L 183.422713 75.623733 
L 183.742181 86.068884 
L 184.061648 85.184178 
L 184.381116 87.361378 
L 184.700583 83.837409 
L 185.020051 85.403998 
L 185.339518 83.276943 
L 185.658985 93.81832 
L 185.978453 89.64171 
L 186.29792 91.311041 
L 186.617388 89.927552 
L 186.936855 92.83513 
L 187.256322 85.852224 
L 187.57579 87.098203 
L 187.895257 83.05774 
L 188.534192 89.650148 
L 188.853659 90.736998 
L 189.173127 86.233019 
L 189.492594 89.995997 
L 189.812062 86.586399 
L 190.131529 84.597196 
L 190.450996 84.029436 
L 190.770464 76.794909 
L 191.089931 90.355677 
L 191.728866 83.789389 
L 192.048333 77.078359 
L 192.367801 84.420485 
L 192.687268 78.627515 
L 193.326203 88.884428 
L 193.64567 91.434681 
L 193.965138 84.187946 
L 194.284605 86.584732 
L 194.604073 79.619767 
L 194.92354 80.563089 
L 195.243007 86.654035 
L 195.562475 88.76918 
L 195.881942 77.397338 
L 196.20141 76.473179 
L 196.840344 89.755041 
L 197.159812 74.378162 
L 197.479279 87.464214 
L 197.798747 88.106713 
L 198.118214 84.297374 
L 198.437681 90.076148 
L 198.757149 82.278713 
L 199.396084 86.93594 
L 199.715551 86.144597 
L 200.035018 84.990917 
L 200.354486 86.210059 
L 200.673953 88.320003 
L 200.993421 86.367974 
L 201.312888 86.201427 
L 201.632355 88.685116 
L 201.951823 86.62742 
L 202.27129 89.964632 
L 202.590758 83.473409 
L 202.910225 85.701582 
L 203.229692 89.547602 
L 203.868627 85.200004 
L 204.188095 85.773265 
L 204.507562 89.056742 
L 205.146497 84.695074 
L 205.465964 89.588033 
L 205.785432 85.209617 
L 206.104899 78.703997 
L 206.424366 95.085165 
L 206.743834 85.658046 
L 207.063301 85.156565 
L 207.382769 90.156064 
L 207.702236 72.924091 
L 208.021703 77.938434 
L 208.341171 73.655627 
L 208.660638 79.131947 
L 208.980106 75.85889 
L 209.299573 81.754817 
L 209.61904 91.081551 
L 209.938508 76.755103 
L 210.257975 84.639342 
L 210.577443 83.207871 
L 210.89691 78.084061 
L 211.216377 77.704821 
L 211.535845 83.227098 
L 211.855312 90.954088 
L 212.17478 85.223179 
L 212.494247 74.759598 
L 212.813714 75.892095 
L 213.133182 87.681141 
L 213.133182 87.681141 
" clip-path="url(#p2ca2578bca)" style="fill: none; stroke: #1f618d; stroke-opacity: 0.9; stroke-linecap: square"/>
   </g>
   <g id="line2d_43">
    <path d="M 47.09 74.767907 
L 221.04 74.767907 
" clip-path="url(#p2ca2578bca)" style="fill: none; stroke-dasharray: 0.8,1.32; stroke-dashoffset: 0; stroke: #808080; stroke-opacity: 0.7; stroke-width: 0.8"/>
   </g>
   <g id="patch_3">
    <path d="M 47.09 133.511111 
L 47.09 12.96 
" style="fill: none; stroke: #000000; stroke-width: 0.8; stroke-linejoin: miter; stroke-linecap: square"/>
   </g>
   <g id="patch_4">
    <path d="M 47.09 133.511111 
L 221.04 133.511111 
" style="fill: none; stroke: #000000; stroke-width: 0.8; stroke-linejoin: miter; stroke-linecap: square"/>
   </g>
   <g id="text_5">
    <!-- Norm Ratio (Math/Chat) -->
    <g transform="translate(55.7875 31.655736) scale(0.1 -0.1)">
     <defs>
      <path id="TimesNewRomanPS-BoldMT-4e" d="M 1594 4238 
L 3684 1609 
L 3684 3431 
Q 3684 3813 3575 3947 
Q 3425 4128 3072 4122 
L 3072 4238 
L 4472 4238 
L 4472 4122 
Q 4203 4088 4111 4033 
Q 4019 3978 3967 3854 
Q 3916 3731 3916 3431 
L 3916 -97 
L 3809 -97 
L 944 3431 
L 944 738 
Q 944 372 1111 244 
Q 1278 116 1494 116 
L 1594 116 
L 1594 0 
L 91 0 
L 91 116 
Q 441 119 578 259 
Q 716 400 716 738 
L 716 3728 
L 625 3841 
Q 491 4009 387 4062 
Q 284 4116 91 4122 
L 91 4238 
L 1594 4238 
z
" transform="scale(0.015625)"/>
      <path id="TimesNewRomanPS-BoldMT-72" d="M 1428 2922 
L 1428 2259 
Q 1719 2713 1937 2861 
Q 2156 3009 2359 3009 
Q 2534 3009 2639 2901 
Q 2744 2794 2744 2597 
Q 2744 2388 2642 2272 
Q 2541 2156 2397 2156 
Q 2231 2156 2109 2262 
Q 1988 2369 1966 2381 
Q 1934 2400 1894 2400 
Q 1803 2400 1722 2331 
Q 1594 2225 1528 2028 
Q 1428 1725 1428 1359 
L 1428 688 
L 1431 513 
Q 1431 334 1453 284 
Q 1491 200 1564 161 
Q 1638 122 1813 113 
L 1813 0 
L 234 0 
L 234 113 
Q 425 128 492 217 
Q 559 306 559 688 
L 559 2303 
Q 559 2553 534 2622 
Q 503 2709 443 2750 
Q 384 2791 234 2806 
L 234 2922 
L 1428 2922 
z
" transform="scale(0.015625)"/>
      <path id="TimesNewRomanPS-BoldMT-6d" d="M 1428 2922 
L 1428 2538 
Q 1669 2800 1873 2904 
Q 2078 3009 2322 3009 
Q 2603 3009 2793 2878 
Q 2984 2747 3088 2478 
Q 3338 2759 3567 2884 
Q 3797 3009 4047 3009 
Q 4350 3009 4529 2870 
Q 4709 2731 4779 2517 
Q 4850 2303 4850 1834 
L 4850 638 
Q 4850 300 4911 219 
Q 4972 138 5166 113 
L 5166 0 
L 3656 0 
L 3656 113 
Q 3834 128 3919 250 
Q 3975 334 3975 638 
L 3975 1894 
Q 3975 2284 3944 2390 
Q 3913 2497 3845 2548 
Q 3778 2600 3688 2600 
Q 3553 2600 3415 2501 
Q 3278 2403 3138 2206 
L 3138 638 
Q 3138 322 3191 241 
Q 3263 125 3466 113 
L 3466 0 
L 1953 0 
L 1953 113 
Q 2075 119 2145 173 
Q 2216 228 2239 304 
Q 2263 381 2263 638 
L 2263 1894 
Q 2263 2291 2231 2391 
Q 2200 2491 2126 2547 
Q 2053 2603 1969 2603 
Q 1844 2603 1741 2538 
Q 1594 2441 1428 2206 
L 1428 638 
Q 1428 328 1489 229 
Q 1550 131 1744 113 
L 1744 0 
L 238 0 
L 238 113 
Q 422 131 500 231 
Q 553 300 553 638 
L 553 2288 
Q 553 2619 492 2700 
Q 431 2781 238 2806 
L 238 2922 
L 1428 2922 
z
" transform="scale(0.015625)"/>
      <path id="TimesNewRomanPS-BoldMT-4d" d="M 3050 1444 
L 4200 4238 
L 5925 4238 
L 5925 4122 
L 5788 4122 
Q 5600 4122 5488 4056 
Q 5409 4013 5363 3909 
Q 5328 3834 5328 3519 
L 5328 725 
Q 5328 400 5362 319 
Q 5397 238 5503 177 
Q 5609 116 5788 116 
L 5925 116 
L 5925 0 
L 3713 0 
L 3713 116 
L 3850 116 
Q 4038 116 4150 181 
Q 4228 225 4275 331 
Q 4309 406 4309 725 
L 4309 3866 
L 2684 0 
L 2609 0 
L 959 3838 
L 959 853 
Q 959 541 975 469 
Q 1016 313 1152 214 
Q 1288 116 1578 116 
L 1578 0 
L 128 0 
L 128 116 
L 172 116 
Q 313 113 434 161 
Q 556 209 618 290 
Q 681 372 716 519 
Q 722 553 722 838 
L 722 3519 
Q 722 3841 687 3920 
Q 653 4000 547 4061 
Q 441 4122 263 4122 
L 128 4122 
L 128 4238 
L 1859 4238 
L 3050 1444 
z
" transform="scale(0.015625)"/>
      <path id="TimesNewRomanPS-BoldMT-68" d="M 1409 4238 
L 1409 2547 
Q 1650 2800 1850 2904 
Q 2050 3009 2266 3009 
Q 2541 3009 2736 2853 
Q 2931 2697 2995 2486 
Q 3059 2275 3059 1775 
L 3059 634 
Q 3059 300 3121 217 
Q 3184 134 3375 113 
L 3375 0 
L 1894 0 
L 1894 113 
Q 2050 134 2128 238 
Q 2184 319 2184 634 
L 2184 1938 
Q 2184 2300 2156 2392 
Q 2128 2484 2061 2536 
Q 1994 2588 1909 2588 
Q 1784 2588 1665 2502 
Q 1547 2416 1409 2200 
L 1409 634 
Q 1409 322 1456 244 
Q 1516 138 1700 113 
L 1700 0 
L 219 0 
L 219 113 
Q 403 131 481 231 
Q 534 300 534 634 
L 534 3603 
Q 534 3934 473 4015 
Q 413 4097 219 4122 
L 219 4238 
L 1409 4238 
z
" transform="scale(0.015625)"/>
      <path id="TimesNewRomanPS-BoldMT-2f" d="M 1797 4334 
L 406 -97 
L 6 -97 
L 1403 4334 
L 1797 4334 
z
" transform="scale(0.015625)"/>
      <path id="TimesNewRomanPS-BoldMT-43" d="M 4272 4334 
L 4272 2866 
L 4150 2866 
Q 4013 3441 3638 3747 
Q 3263 4053 2788 4053 
Q 2391 4053 2059 3825 
Q 1728 3597 1575 3228 
Q 1378 2756 1378 2178 
Q 1378 1609 1522 1142 
Q 1666 675 1972 436 
Q 2278 197 2766 197 
Q 3166 197 3498 372 
Q 3831 547 4200 975 
L 4200 609 
Q 3844 238 3458 70 
Q 3072 -97 2556 -97 
Q 1878 -97 1351 175 
Q 825 447 539 956 
Q 253 1466 253 2041 
Q 253 2647 570 3190 
Q 888 3734 1427 4034 
Q 1966 4334 2572 4334 
Q 3019 4334 3516 4141 
Q 3803 4028 3881 4028 
Q 3981 4028 4054 4101 
Q 4128 4175 4150 4334 
L 4272 4334 
z
" transform="scale(0.015625)"/>
     </defs>
     <use xlink:href="#TimesNewRomanPS-BoldMT-4e"/>
     <use xlink:href="#TimesNewRomanPS-BoldMT-6f" x="72.216797"/>
     <use xlink:href="#TimesNewRomanPS-BoldMT-72" x="122.216797"/>
     <use xlink:href="#TimesNewRomanPS-BoldMT-6d" x="166.601562"/>
     <use xlink:href="#TimesNewRomanPS-BoldMT-20" x="249.902344"/>
     <use xlink:href="#TimesNewRomanPS-BoldMT-52" x="274.902344"/>
     <use xlink:href="#TimesNewRomanPS-BoldMT-61" x="347.119141"/>
     <use xlink:href="#TimesNewRomanPS-BoldMT-74" x="397.119141"/>
     <use xlink:href="#TimesNewRomanPS-BoldMT-69" x="430.419922"/>
     <use xlink:href="#TimesNewRomanPS-BoldMT-6f" x="458.203125"/>
     <use xlink:href="#TimesNewRomanPS-BoldMT-20" x="508.203125"/>
     <use xlink:href="#TimesNewRomanPS-BoldMT-28" x="533.203125"/>
     <use xlink:href="#TimesNewRomanPS-BoldMT-4d" x="566.503906"/>
     <use xlink:href="#TimesNewRomanPS-BoldMT-61" x="660.888672"/>
     <use xlink:href="#TimesNewRomanPS-BoldMT-74" x="710.888672"/>
     <use xlink:href="#TimesNewRomanPS-BoldMT-68" x="744.189453"/>
     <use xlink:href="#TimesNewRomanPS-BoldMT-2f" x="799.804688"/>
     <use xlink:href="#TimesNewRomanPS-BoldMT-43" x="827.587891"/>
     <use xlink:href="#TimesNewRomanPS-BoldMT-68" x="899.804688"/>
     <use xlink:href="#TimesNewRomanPS-BoldMT-61" x="955.419922"/>
     <use xlink:href="#TimesNewRomanPS-BoldMT-74" x="1005.419922"/>
     <use xlink:href="#TimesNewRomanPS-BoldMT-29" x="1038.720703"/>
    </g>
   </g>
  </g>
  <g id="axes_2">
   <g id="patch_5">
    <path d="M 47.09 284.2 
L 221.04 284.2 
L 221.04 163.648889 
L 47.09 163.648889 
z
" style="fill: #ffffff"/>
   </g>
   <g id="matplotlib.axis_3">
    <g id="xtick_7">
     <g id="line2d_44">
      <g>
       <use xlink:href="#m063a6ce42e" x="54.677351" y="284.2" style="stroke: #000000; stroke-width: 0.8"/>
      </g>
     </g>
     <g id="text_6">
      <!-- 0 -->
      <g transform="translate(52.677351 296.755) scale(0.08 -0.08)">
       <use xlink:href="#TimesNewRomanPSMT-30"/>
      </g>
     </g>
    </g>
    <g id="xtick_8">
     <g id="line2d_45">
      <g>
       <use xlink:href="#m063a6ce42e" x="86.624091" y="284.2" style="stroke: #000000; stroke-width: 0.8"/>
      </g>
     </g>
     <g id="text_7">
      <!-- 100 -->
      <g transform="translate(80.624091 296.755) scale(0.08 -0.08)">
       <use xlink:href="#TimesNewRomanPSMT-31"/>
       <use xlink:href="#TimesNewRomanPSMT-30" x="50"/>
       <use xlink:href="#TimesNewRomanPSMT-30" x="100"/>
      </g>
     </g>
    </g>
    <g id="xtick_9">
     <g id="line2d_46">
      <g>
       <use xlink:href="#m063a6ce42e" x="118.570831" y="284.2" style="stroke: #000000; stroke-width: 0.8"/>
      </g>
     </g>
     <g id="text_8">
      <!-- 200 -->
      <g transform="translate(112.570831 296.755) scale(0.08 -0.08)">
       <defs>
        <path id="TimesNewRomanPSMT-32" d="M 2934 816 
L 2638 0 
L 138 0 
L 138 116 
Q 1241 1122 1691 1759 
Q 2141 2397 2141 2925 
Q 2141 3328 1894 3587 
Q 1647 3847 1303 3847 
Q 991 3847 742 3664 
Q 494 3481 375 3128 
L 259 3128 
Q 338 3706 661 4015 
Q 984 4325 1469 4325 
Q 1984 4325 2329 3994 
Q 2675 3663 2675 3213 
Q 2675 2891 2525 2569 
Q 2294 2063 1775 1497 
Q 997 647 803 472 
L 1909 472 
Q 2247 472 2383 497 
Q 2519 522 2628 598 
Q 2738 675 2819 816 
L 2934 816 
z
" transform="scale(0.015625)"/>
       </defs>
       <use xlink:href="#TimesNewRomanPSMT-32"/>
       <use xlink:href="#TimesNewRomanPSMT-30" x="50"/>
       <use xlink:href="#TimesNewRomanPSMT-30" x="100"/>
      </g>
     </g>
    </g>
    <g id="xtick_10">
     <g id="line2d_47">
      <g>
       <use xlink:href="#m063a6ce42e" x="150.517571" y="284.2" style="stroke: #000000; stroke-width: 0.8"/>
      </g>
     </g>
     <g id="text_9">
      <!-- 300 -->
      <g transform="translate(144.517571 296.755) scale(0.08 -0.08)">
       <defs>
        <path id="TimesNewRomanPSMT-33" d="M 325 3431 
Q 506 3859 782 4092 
Q 1059 4325 1472 4325 
Q 1981 4325 2253 3994 
Q 2459 3747 2459 3466 
Q 2459 3003 1878 2509 
Q 2269 2356 2469 2072 
Q 2669 1788 2669 1403 
Q 2669 853 2319 450 
Q 1863 -75 997 -75 
Q 569 -75 414 31 
Q 259 138 259 259 
Q 259 350 332 419 
Q 406 488 509 488 
Q 588 488 669 463 
Q 722 447 909 348 
Q 1097 250 1169 231 
Q 1284 197 1416 197 
Q 1734 197 1970 444 
Q 2206 691 2206 1028 
Q 2206 1275 2097 1509 
Q 2016 1684 1919 1775 
Q 1784 1900 1550 2001 
Q 1316 2103 1072 2103 
L 972 2103 
L 972 2197 
Q 1219 2228 1467 2375 
Q 1716 2522 1828 2728 
Q 1941 2934 1941 3181 
Q 1941 3503 1739 3701 
Q 1538 3900 1238 3900 
Q 753 3900 428 3381 
L 325 3431 
z
" transform="scale(0.015625)"/>
       </defs>
       <use xlink:href="#TimesNewRomanPSMT-33"/>
       <use xlink:href="#TimesNewRomanPSMT-30" x="50"/>
       <use xlink:href="#TimesNewRomanPSMT-30" x="100"/>
      </g>
     </g>
    </g>
    <g id="xtick_11">
     <g id="line2d_48">
      <g>
       <use xlink:href="#m063a6ce42e" x="182.464311" y="284.2" style="stroke: #000000; stroke-width: 0.8"/>
      </g>
     </g>
     <g id="text_10">
      <!-- 400 -->
      <g transform="translate(176.464311 296.755) scale(0.08 -0.08)">
       <defs>
        <path id="TimesNewRomanPSMT-34" d="M 2978 1563 
L 2978 1119 
L 2409 1119 
L 2409 0 
L 1894 0 
L 1894 1119 
L 100 1119 
L 100 1519 
L 2066 4325 
L 2409 4325 
L 2409 1563 
L 2978 1563 
z
M 1894 1563 
L 1894 3666 
L 406 1563 
L 1894 1563 
z
" transform="scale(0.015625)"/>
       </defs>
       <use xlink:href="#TimesNewRomanPSMT-34"/>
       <use xlink:href="#TimesNewRomanPSMT-30" x="50"/>
       <use xlink:href="#TimesNewRomanPSMT-30" x="100"/>
      </g>
     </g>
    </g>
    <g id="xtick_12">
     <g id="line2d_49">
      <g>
       <use xlink:href="#m063a6ce42e" x="214.411051" y="284.2" style="stroke: #000000; stroke-width: 0.8"/>
      </g>
     </g>
     <g id="text_11">
      <!-- 500 -->
      <g transform="translate(208.411051 296.755) scale(0.08 -0.08)">
       <defs>
        <path id="TimesNewRomanPSMT-35" d="M 2778 4238 
L 2534 3706 
L 1259 3706 
L 981 3138 
Q 1809 3016 2294 2522 
Q 2709 2097 2709 1522 
Q 2709 1188 2573 903 
Q 2438 619 2231 419 
Q 2025 219 1772 97 
Q 1413 -75 1034 -75 
Q 653 -75 479 54 
Q 306 184 306 341 
Q 306 428 378 495 
Q 450 563 559 563 
Q 641 563 702 538 
Q 763 513 909 409 
Q 1144 247 1384 247 
Q 1750 247 2026 523 
Q 2303 800 2303 1197 
Q 2303 1581 2056 1914 
Q 1809 2247 1375 2428 
Q 1034 2569 447 2591 
L 1259 4238 
L 2778 4238 
z
" transform="scale(0.015625)"/>
       </defs>
       <use xlink:href="#TimesNewRomanPSMT-35"/>
       <use xlink:href="#TimesNewRomanPSMT-30" x="50"/>
       <use xlink:href="#TimesNewRomanPSMT-30" x="100"/>
      </g>
     </g>
    </g>
    <g id="text_12">
     <!-- Training Step -->
     <g transform="translate(104.844687 309.244375) scale(0.1 -0.1)">
      <defs>
       <path id="TimesNewRomanPS-BoldMT-54" d="M 4038 4238 
L 4038 3091 
L 3925 3091 
Q 3825 3488 3703 3661 
Q 3581 3834 3369 3938 
Q 3250 3994 2953 3994 
L 2638 3994 
L 2638 725 
Q 2638 400 2673 319 
Q 2709 238 2814 177 
Q 2919 116 3100 116 
L 3241 116 
L 3241 0 
L 1022 0 
L 1022 116 
L 1163 116 
Q 1347 116 1459 181 
Q 1541 225 1588 331 
Q 1622 406 1622 725 
L 1622 3994 
L 1316 3994 
Q 888 3994 694 3813 
Q 422 3559 350 3091 
L 231 3091 
L 231 4238 
L 4038 4238 
z
" transform="scale(0.015625)"/>
       <path id="TimesNewRomanPS-BoldMT-6e" d="M 1409 2922 
L 1409 2544 
Q 1634 2788 1840 2898 
Q 2047 3009 2284 3009 
Q 2569 3009 2756 2851 
Q 2944 2694 3006 2459 
Q 3056 2281 3056 1775 
L 3056 638 
Q 3056 300 3117 217 
Q 3178 134 3372 113 
L 3372 0 
L 1894 0 
L 1894 113 
Q 2059 134 2131 250 
Q 2181 328 2181 638 
L 2181 1938 
Q 2181 2297 2153 2390 
Q 2125 2484 2058 2536 
Q 1991 2588 1909 2588 
Q 1641 2588 1409 2203 
L 1409 638 
Q 1409 309 1470 221 
Q 1531 134 1697 113 
L 1697 0 
L 219 0 
L 219 113 
Q 403 131 481 231 
Q 534 300 534 638 
L 534 2288 
Q 534 2619 473 2700 
Q 413 2781 219 2806 
L 219 2922 
L 1409 2922 
z
" transform="scale(0.015625)"/>
       <path id="TimesNewRomanPS-BoldMT-53" d="M 3006 4334 
L 3041 2922 
L 2913 2922 
Q 2822 3453 2467 3776 
Q 2113 4100 1700 4100 
Q 1381 4100 1195 3929 
Q 1009 3759 1009 3538 
Q 1009 3397 1075 3288 
Q 1166 3141 1366 2997 
Q 1513 2894 2044 2631 
Q 2788 2266 3047 1941 
Q 3303 1616 3303 1197 
Q 3303 666 2889 283 
Q 2475 -100 1838 -100 
Q 1638 -100 1459 -59 
Q 1281 -19 1013 94 
Q 863 156 766 156 
Q 684 156 593 93 
Q 503 31 447 -97 
L 331 -97 
L 331 1503 
L 447 1503 
Q 584 828 976 473 
Q 1369 119 1822 119 
Q 2172 119 2380 309 
Q 2588 500 2588 753 
Q 2588 903 2508 1043 
Q 2428 1184 2265 1311 
Q 2103 1438 1691 1641 
Q 1113 1925 859 2125 
Q 606 2325 470 2572 
Q 334 2819 334 3116 
Q 334 3622 706 3978 
Q 1078 4334 1644 4334 
Q 1850 4334 2044 4284 
Q 2191 4247 2402 4145 
Q 2613 4044 2697 4044 
Q 2778 4044 2825 4094 
Q 2872 4144 2913 4334 
L 3006 4334 
z
" transform="scale(0.015625)"/>
       <path id="TimesNewRomanPS-BoldMT-65" d="M 2691 1566 
L 1088 1566 
Q 1116 984 1397 647 
Q 1613 388 1916 388 
Q 2103 388 2256 492 
Q 2409 597 2584 869 
L 2691 800 
Q 2453 316 2165 114 
Q 1878 -88 1500 -88 
Q 850 -88 516 413 
Q 247 816 247 1413 
Q 247 2144 642 2576 
Q 1038 3009 1569 3009 
Q 2013 3009 2339 2645 
Q 2666 2281 2691 1566 
z
M 1922 1775 
Q 1922 2278 1867 2465 
Q 1813 2653 1697 2750 
Q 1631 2806 1522 2806 
Q 1359 2806 1256 2647 
Q 1072 2369 1072 1884 
L 1072 1775 
L 1922 1775 
z
" transform="scale(0.015625)"/>
       <path id="TimesNewRomanPS-BoldMT-70" d="M 1347 297 
L 1347 -791 
Q 1347 -1016 1383 -1097 
Q 1419 -1178 1494 -1215 
Q 1569 -1253 1788 -1253 
L 1788 -1369 
L 122 -1369 
L 122 -1253 
Q 316 -1247 409 -1144 
Q 472 -1072 472 -772 
L 472 2313 
Q 472 2622 400 2708 
Q 328 2794 122 2806 
L 122 2922 
L 1347 2922 
L 1347 2538 
Q 1500 2763 1659 2863 
Q 1888 3009 2156 3009 
Q 2478 3009 2742 2806 
Q 3006 2603 3143 2245 
Q 3281 1888 3281 1475 
Q 3281 1031 3139 664 
Q 2997 297 2726 104 
Q 2456 -88 2125 -88 
Q 1884 -88 1675 19 
Q 1519 100 1347 297 
z
M 1347 613 
Q 1616 231 1922 231 
Q 2091 231 2200 409 
Q 2363 672 2363 1409 
Q 2363 2166 2184 2444 
Q 2066 2628 1866 2628 
Q 1550 2628 1347 2172 
L 1347 613 
z
" transform="scale(0.015625)"/>
      </defs>
      <use xlink:href="#TimesNewRomanPS-BoldMT-54"/>
      <use xlink:href="#TimesNewRomanPS-BoldMT-72" x="59.324219"/>
      <use xlink:href="#TimesNewRomanPS-BoldMT-61" x="103.708984"/>
      <use xlink:href="#TimesNewRomanPS-BoldMT-69" x="153.708984"/>
      <use xlink:href="#TimesNewRomanPS-BoldMT-6e" x="181.492188"/>
      <use xlink:href="#TimesNewRomanPS-BoldMT-69" x="237.107422"/>
      <use xlink:href="#TimesNewRomanPS-BoldMT-6e" x="264.890625"/>
      <use xlink:href="#TimesNewRomanPS-BoldMT-67" x="320.505859"/>
      <use xlink:href="#TimesNewRomanPS-BoldMT-20" x="370.505859"/>
      <use xlink:href="#TimesNewRomanPS-BoldMT-53" x="395.505859"/>
      <use xlink:href="#TimesNewRomanPS-BoldMT-74" x="451.121094"/>
      <use xlink:href="#TimesNewRomanPS-BoldMT-65" x="484.421875"/>
      <use xlink:href="#TimesNewRomanPS-BoldMT-70" x="528.806641"/>
     </g>
    </g>
   </g>
   <g id="matplotlib.axis_4">
    <g id="ytick_33">
     <g id="line2d_50">
      <path d="M 47.09 284.153846 
L 221.04 284.153846 
" clip-path="url(#pb4b4e7d99d)" style="fill: none; stroke-dasharray: 0.8,1.32; stroke-dashoffset: 0; stroke: #b0b0b0; stroke-opacity: 0.6; stroke-width: 0.8"/>
     </g>
     <g id="line2d_51">
      <g>
       <use xlink:href="#mbe684c8bc9" x="47.09" y="284.153846" style="stroke: #000000; stroke-width: 0.8"/>
      </g>
     </g>
     <g id="text_13">
      <!-- −0.6 -->
      <g transform="translate(25.57875 286.931346) scale(0.08 -0.08)">
       <defs>
        <path id="TimesNewRomanPSMT-2e" d="M 800 606 
Q 947 606 1047 504 
Q 1147 403 1147 259 
Q 1147 116 1045 14 
Q 944 -88 800 -88 
Q 656 -88 554 14 
Q 453 116 453 259 
Q 453 406 554 506 
Q 656 606 800 606 
z
" transform="scale(0.015625)"/>
        <path id="TimesNewRomanPSMT-36" d="M 2869 4325 
L 2869 4209 
Q 2456 4169 2195 4045 
Q 1934 3922 1679 3669 
Q 1425 3416 1258 3105 
Q 1091 2794 978 2366 
Q 1428 2675 1881 2675 
Q 2316 2675 2634 2325 
Q 2953 1975 2953 1425 
Q 2953 894 2631 456 
Q 2244 -75 1606 -75 
Q 1172 -75 869 213 
Q 275 772 275 1663 
Q 275 2231 503 2743 
Q 731 3256 1154 3653 
Q 1578 4050 1965 4187 
Q 2353 4325 2688 4325 
L 2869 4325 
z
M 925 2138 
Q 869 1716 869 1456 
Q 869 1156 980 804 
Q 1091 453 1309 247 
Q 1469 100 1697 100 
Q 1969 100 2183 356 
Q 2397 613 2397 1088 
Q 2397 1622 2184 2012 
Q 1972 2403 1581 2403 
Q 1463 2403 1327 2353 
Q 1191 2303 925 2138 
z
" transform="scale(0.015625)"/>
       </defs>
       <use xlink:href="#TimesNewRomanPSMT-2212"/>
       <use xlink:href="#TimesNewRomanPSMT-30" x="56.396484"/>
       <use xlink:href="#TimesNewRomanPSMT-2e" x="106.396484"/>
       <use xlink:href="#TimesNewRomanPSMT-36" x="131.396484"/>
      </g>
     </g>
    </g>
    <g id="ytick_34">
     <g id="line2d_52">
      <path d="M 47.09 266.817648 
L 221.04 266.817648 
" clip-path="url(#pb4b4e7d99d)" style="fill: none; stroke-dasharray: 0.8,1.32; stroke-dashoffset: 0; stroke: #b0b0b0; stroke-opacity: 0.6; stroke-width: 0.8"/>
     </g>
     <g id="line2d_53">
      <g>
       <use xlink:href="#mbe684c8bc9" x="47.09" y="266.817648" style="stroke: #000000; stroke-width: 0.8"/>
      </g>
     </g>
     <g id="text_14">
      <!-- −0.4 -->
      <g transform="translate(25.57875 269.595148) scale(0.08 -0.08)">
       <use xlink:href="#TimesNewRomanPSMT-2212"/>
       <use xlink:href="#TimesNewRomanPSMT-30" x="56.396484"/>
       <use xlink:href="#TimesNewRomanPSMT-2e" x="106.396484"/>
       <use xlink:href="#TimesNewRomanPSMT-34" x="131.396484"/>
      </g>
     </g>
    </g>
    <g id="ytick_35">
     <g id="line2d_54">
      <path d="M 47.09 249.481451 
L 221.04 249.481451 
" clip-path="url(#pb4b4e7d99d)" style="fill: none; stroke-dasharray: 0.8,1.32; stroke-dashoffset: 0; stroke: #b0b0b0; stroke-opacity: 0.6; stroke-width: 0.8"/>
     </g>
     <g id="line2d_55">
      <g>
       <use xlink:href="#mbe684c8bc9" x="47.09" y="249.481451" style="stroke: #000000; stroke-width: 0.8"/>
      </g>
     </g>
     <g id="text_15">
      <!-- −0.2 -->
      <g transform="translate(25.57875 252.258951) scale(0.08 -0.08)">
       <use xlink:href="#TimesNewRomanPSMT-2212"/>
       <use xlink:href="#TimesNewRomanPSMT-30" x="56.396484"/>
       <use xlink:href="#TimesNewRomanPSMT-2e" x="106.396484"/>
       <use xlink:href="#TimesNewRomanPSMT-32" x="131.396484"/>
      </g>
     </g>
    </g>
    <g id="ytick_36">
     <g id="line2d_56">
      <path d="M 47.09 232.145253 
L 221.04 232.145253 
" clip-path="url(#pb4b4e7d99d)" style="fill: none; stroke-dasharray: 0.8,1.32; stroke-dashoffset: 0; stroke: #b0b0b0; stroke-opacity: 0.6; stroke-width: 0.8"/>
     </g>
     <g id="line2d_57">
      <g>
       <use xlink:href="#mbe684c8bc9" x="47.09" y="232.145253" style="stroke: #000000; stroke-width: 0.8"/>
      </g>
     </g>
     <g id="text_16">
      <!-- 0.0 -->
      <g transform="translate(30.09 234.922753) scale(0.08 -0.08)">
       <use xlink:href="#TimesNewRomanPSMT-30"/>
       <use xlink:href="#TimesNewRomanPSMT-2e" x="50"/>
       <use xlink:href="#TimesNewRomanPSMT-30" x="75"/>
      </g>
     </g>
    </g>
    <g id="ytick_37">
     <g id="line2d_58">
      <path d="M 47.09 214.809055 
L 221.04 214.809055 
" clip-path="url(#pb4b4e7d99d)" style="fill: none; stroke-dasharray: 0.8,1.32; stroke-dashoffset: 0; stroke: #b0b0b0; stroke-opacity: 0.6; stroke-width: 0.8"/>
     </g>
     <g id="line2d_59">
      <g>
       <use xlink:href="#mbe684c8bc9" x="47.09" y="214.809055" style="stroke: #000000; stroke-width: 0.8"/>
      </g>
     </g>
     <g id="text_17">
      <!-- 0.2 -->
      <g transform="translate(30.09 217.586555) scale(0.08 -0.08)">
       <use xlink:href="#TimesNewRomanPSMT-30"/>
       <use xlink:href="#TimesNewRomanPSMT-2e" x="50"/>
       <use xlink:href="#TimesNewRomanPSMT-32" x="75"/>
      </g>
     </g>
    </g>
    <g id="ytick_38">
     <g id="line2d_60">
      <path d="M 47.09 197.472858 
L 221.04 197.472858 
" clip-path="url(#pb4b4e7d99d)" style="fill: none; stroke-dasharray: 0.8,1.32; stroke-dashoffset: 0; stroke: #b0b0b0; stroke-opacity: 0.6; stroke-width: 0.8"/>
     </g>
     <g id="line2d_61">
      <g>
       <use xlink:href="#mbe684c8bc9" x="47.09" y="197.472858" style="stroke: #000000; stroke-width: 0.8"/>
      </g>
     </g>
     <g id="text_18">
      <!-- 0.4 -->
      <g transform="translate(30.09 200.250358) scale(0.08 -0.08)">
       <use xlink:href="#TimesNewRomanPSMT-30"/>
       <use xlink:href="#TimesNewRomanPSMT-2e" x="50"/>
       <use xlink:href="#TimesNewRomanPSMT-34" x="75"/>
      </g>
     </g>
    </g>
    <g id="ytick_39">
     <g id="line2d_62">
      <path d="M 47.09 180.13666 
L 221.04 180.13666 
" clip-path="url(#pb4b4e7d99d)" style="fill: none; stroke-dasharray: 0.8,1.32; stroke-dashoffset: 0; stroke: #b0b0b0; stroke-opacity: 0.6; stroke-width: 0.8"/>
     </g>
     <g id="line2d_63">
      <g>
       <use xlink:href="#mbe684c8bc9" x="47.09" y="180.13666" style="stroke: #000000; stroke-width: 0.8"/>
      </g>
     </g>
     <g id="text_19">
      <!-- 0.6 -->
      <g transform="translate(30.09 182.91416) scale(0.08 -0.08)">
       <use xlink:href="#TimesNewRomanPSMT-30"/>
       <use xlink:href="#TimesNewRomanPSMT-2e" x="50"/>
       <use xlink:href="#TimesNewRomanPSMT-36" x="75"/>
      </g>
     </g>
    </g>
    <g id="text_20">
     <!-- Cosine Sim -->
     <g transform="translate(19.439687 247.954913) rotate(-90) scale(0.1 -0.1)">
      <defs>
       <path id="TimesNewRomanPS-BoldMT-73" d="M 2063 3003 
L 2109 2006 
L 2003 2006 
Q 1813 2450 1608 2612 
Q 1403 2775 1200 2775 
Q 1072 2775 981 2689 
Q 891 2603 891 2491 
Q 891 2406 953 2328 
Q 1053 2200 1512 1889 
Q 1972 1578 2117 1361 
Q 2263 1144 2263 875 
Q 2263 631 2141 397 
Q 2019 163 1797 37 
Q 1575 -88 1306 -88 
Q 1097 -88 747 44 
Q 653 78 619 78 
Q 516 78 447 -78 
L 344 -78 
L 294 972 
L 400 972 
Q 541 559 786 353 
Q 1031 147 1250 147 
Q 1400 147 1495 239 
Q 1591 331 1591 463 
Q 1591 613 1497 722 
Q 1403 831 1078 1053 
Q 600 1384 459 1559 
Q 253 1816 253 2125 
Q 253 2463 486 2736 
Q 719 3009 1159 3009 
Q 1397 3009 1619 2894 
Q 1703 2847 1756 2847 
Q 1813 2847 1847 2870 
Q 1881 2894 1956 3003 
L 2063 3003 
z
" transform="scale(0.015625)"/>
      </defs>
      <use xlink:href="#TimesNewRomanPS-BoldMT-43"/>
      <use xlink:href="#TimesNewRomanPS-BoldMT-6f" x="72.216797"/>
      <use xlink:href="#TimesNewRomanPS-BoldMT-73" x="122.216797"/>
      <use xlink:href="#TimesNewRomanPS-BoldMT-69" x="161.132812"/>
      <use xlink:href="#TimesNewRomanPS-BoldMT-6e" x="188.916016"/>
      <use xlink:href="#TimesNewRomanPS-BoldMT-65" x="244.53125"/>
      <use xlink:href="#TimesNewRomanPS-BoldMT-20" x="288.916016"/>
      <use xlink:href="#TimesNewRomanPS-BoldMT-53" x="313.916016"/>
      <use xlink:href="#TimesNewRomanPS-BoldMT-69" x="369.53125"/>
      <use xlink:href="#TimesNewRomanPS-BoldMT-6d" x="397.314453"/>
     </g>
    </g>
   </g>
   <g id="line2d_64">
    <path d="M 54.996818 231.912267 
L 55.316286 229.829631 
L 55.635753 218.384405 
L 55.95522 228.46703 
L 56.274688 231.242132 
L 56.594155 231.864195 
L 56.913623 230.944945 
L 57.23309 232.304432 
L 57.552557 229.437796 
L 57.872025 230.164579 
L 58.191492 229.234484 
L 58.51096 230.755107 
L 58.830427 231.17049 
L 59.149894 230.602708 
L 59.469362 231.37375 
L 59.788829 227.646027 
L 60.108297 232.467991 
L 60.427764 231.838774 
L 61.066699 232.934998 
L 61.386166 229.885794 
L 61.705634 233.488375 
L 62.025101 231.041516 
L 62.344568 232.565546 
L 62.664036 232.198082 
L 62.983503 228.897422 
L 63.622438 232.366469 
L 63.941905 222.979734 
L 64.261373 230.069352 
L 64.58084 228.464146 
L 64.900308 232.562279 
L 65.219775 231.235775 
L 65.539242 232.053458 
L 65.85871 231.61981 
L 66.178177 228.328168 
L 66.497645 231.910662 
L 66.817112 232.161369 
L 67.136579 234.134335 
L 67.456047 233.036545 
L 67.775514 233.317451 
L 68.094982 235.601989 
L 68.414449 231.589123 
L 68.733916 230.501358 
L 69.053384 228.877003 
L 69.372851 241.243146 
L 69.692319 239.539743 
L 70.011786 239.00097 
L 70.331253 216.336552 
L 70.650721 235.66062 
L 70.970188 223.848531 
L 71.289656 235.578973 
L 71.609123 234.607741 
L 71.92859 216.613138 
L 72.248058 224.563516 
L 72.567525 227.3624 
L 72.886993 231.350769 
L 73.20646 231.551911 
L 73.525927 231.199755 
L 73.845395 232.487316 
L 74.164862 225.257179 
L 74.48433 227.73071 
L 74.803797 232.729536 
L 75.123264 233.294597 
L 75.442732 231.486389 
L 75.762199 233.782363 
L 76.081667 233.479551 
L 76.401134 231.215474 
L 76.720601 230.964038 
L 77.040069 234.371346 
L 77.359536 230.829399 
L 77.679004 231.158279 
L 77.998471 233.436569 
L 78.317938 208.474193 
L 78.637406 230.601821 
L 79.276341 233.592538 
L 79.595808 230.879976 
L 79.915275 217.479688 
L 80.234743 230.02612 
L 80.55421 220.276176 
L 80.873678 233.444818 
L 81.193145 228.145269 
L 81.512612 229.173907 
L 81.83208 204.940473 
L 82.151547 223.411723 
L 82.471015 229.545056 
L 82.790482 231.18729 
L 83.109949 217.004216 
L 83.429417 229.939737 
L 83.748884 219.9969 
L 84.068352 202.511336 
L 84.387819 225.668595 
L 84.707287 232.547772 
L 85.026754 235.442733 
L 85.346221 235.044715 
L 85.665689 222.21548 
L 85.985156 196.491836 
L 86.304624 234.317236 
L 86.624091 198.25293 
L 86.943558 229.337559 
L 87.263026 225.570651 
L 87.901961 236.13432 
L 88.540895 229.415465 
L 88.860363 231.242617 
L 89.17983 234.744584 
L 89.499298 227.412519 
L 89.818765 228.433018 
L 90.4577 235.752398 
L 90.777167 222.952664 
L 91.096635 231.05362 
L 91.416102 234.054172 
L 91.735569 231.043827 
L 92.055037 204.517339 
L 92.374504 232.533738 
L 92.693972 210.340765 
L 93.013439 224.400659 
L 93.332906 232.749345 
L 93.652374 233.487121 
L 93.971841 233.040715 
L 94.291309 211.273181 
L 94.610776 169.128485 
L 94.930243 230.420831 
L 95.249711 232.278391 
L 95.569178 225.959422 
L 95.888646 227.097951 
L 96.208113 232.462878 
L 96.52758 232.137288 
L 96.847048 227.551451 
L 97.166515 225.428903 
L 97.485983 232.70539 
L 97.80545 230.342157 
L 98.124917 232.877333 
L 98.444385 234.252244 
L 98.763852 224.117094 
L 99.08332 235.843286 
L 99.402787 234.321165 
L 99.722254 224.897288 
L 100.041722 232.916269 
L 100.361189 228.605569 
L 100.680657 234.350763 
L 101.319591 231.417107 
L 101.639059 234.748052 
L 102.277994 226.610869 
L 102.597461 239.085347 
L 102.916928 231.027042 
L 103.236396 211.56136 
L 103.555863 226.64625 
L 103.875331 230.47337 
L 104.194798 225.601973 
L 104.514265 232.364649 
L 104.833733 218.072509 
L 105.1532 218.606027 
L 105.472668 195.440507 
L 105.792135 226.144915 
L 106.111602 232.152285 
L 106.43107 231.080693 
L 106.750537 204.606631 
L 107.070005 232.744459 
L 107.389472 232.228846 
L 107.708939 228.208487 
L 108.347874 232.387948 
L 108.667342 246.717058 
L 108.986809 232.796269 
L 109.306276 233.356992 
L 109.625744 234.524692 
L 109.945211 232.259736 
L 110.264679 231.842108 
L 110.584146 227.339976 
L 110.903613 232.988631 
L 111.223081 234.657397 
L 111.542548 232.93925 
L 111.862016 232.483762 
L 112.181483 233.900003 
L 112.50095 232.769847 
L 113.139885 229.403618 
L 113.459353 216.579248 
L 113.77882 217.214441 
L 114.417755 236.327151 
L 114.737222 230.585991 
L 115.05669 230.511942 
L 115.376157 233.658396 
L 115.695624 227.019325 
L 116.015092 228.91028 
L 116.334559 231.998309 
L 116.654027 232.336428 
L 116.973494 230.216779 
L 117.292961 221.56499 
L 117.612429 233.027677 
L 118.251364 229.29283 
L 118.570831 233.700774 
L 118.890298 231.613024 
L 119.209766 236.833966 
L 119.529233 228.032542 
L 119.848701 224.197227 
L 120.168168 233.112193 
L 120.487635 233.586729 
L 120.807103 231.870821 
L 121.12657 227.800174 
L 121.446038 232.586797 
L 121.765505 234.039788 
L 122.084972 230.163214 
L 122.40444 217.662574 
L 122.723907 232.225162 
L 123.043375 227.411288 
L 123.362842 232.397637 
L 124.001777 231.476797 
L 124.321244 233.379909 
L 124.640712 232.510083 
L 125.279646 228.997628 
L 125.599114 232.412587 
L 125.918581 231.335162 
L 126.238049 233.803481 
L 126.557516 232.109475 
L 126.876983 234.728371 
L 127.196451 235.118394 
L 127.515918 237.214195 
L 127.835386 232.825722 
L 128.154853 231.460741 
L 128.793788 230.983403 
L 129.113255 232.032288 
L 129.432723 234.215433 
L 129.75219 229.508321 
L 130.071657 231.770055 
L 130.710592 232.244114 
L 131.03006 231.831897 
L 131.349527 218.761496 
L 131.668994 229.700799 
L 131.988462 233.061059 
L 132.307929 231.731337 
L 132.627397 220.436546 
L 132.946864 231.3797 
L 133.266331 229.68438 
L 133.585799 233.159433 
L 133.905266 233.576506 
L 134.224734 233.296118 
L 134.544201 231.598881 
L 134.863669 233.096739 
L 135.183136 233.200377 
L 135.502603 230.134447 
L 136.141538 233.208522 
L 136.461006 233.650524 
L 136.780473 231.864147 
L 137.09994 231.728435 
L 137.419408 233.553567 
L 137.738875 229.854208 
L 138.058343 234.328684 
L 138.37781 235.238001 
L 138.697277 234.952058 
L 139.016745 231.118099 
L 139.336212 232.811819 
L 139.65568 232.04009 
L 139.975147 234.531198 
L 140.294614 232.090563 
L 140.614082 235.401289 
L 140.933549 229.311127 
L 141.253017 234.990086 
L 141.572484 233.394533 
L 141.891951 228.945505 
L 142.211419 229.459425 
L 142.530886 230.259357 
L 142.850354 247.701164 
L 143.489288 229.829491 
L 143.808756 232.251025 
L 144.128223 231.701011 
L 144.447691 233.610395 
L 144.767158 232.81431 
L 145.086625 233.101173 
L 145.406093 232.928447 
L 145.72556 238.001066 
L 146.364495 224.444965 
L 146.683962 231.973618 
L 147.00343 234.343823 
L 147.322897 233.768423 
L 147.642365 230.771192 
L 147.961832 231.621529 
L 148.281299 231.817302 
L 148.600767 231.840085 
L 148.920234 226.700164 
L 149.239702 234.042738 
L 149.559169 230.923862 
L 149.878636 220.747608 
L 150.198104 224.43644 
L 150.517571 235.956423 
L 151.156506 230.350066 
L 151.475973 231.757616 
L 151.795441 228.031312 
L 152.114908 234.000275 
L 152.434376 219.016988 
L 152.753843 232.245216 
L 153.07331 240.339213 
L 153.392778 225.124623 
L 153.712245 230.471228 
L 154.031713 232.896397 
L 154.35118 231.762913 
L 154.670647 235.140329 
L 155.309582 229.812022 
L 155.62905 234.428857 
L 155.948517 234.381554 
L 156.267984 231.26156 
L 156.587452 230.489422 
L 156.906919 230.939605 
L 157.226387 229.58113 
L 157.545854 224.65667 
L 157.865321 231.980303 
L 158.184789 232.88754 
L 158.504256 231.073346 
L 158.823724 230.557749 
L 159.143191 236.022869 
L 159.462658 228.97462 
L 159.782126 231.981186 
L 160.101593 231.224726 
L 160.421061 230.129993 
L 160.740528 232.283648 
L 161.379463 233.13463 
L 161.69893 230.836321 
L 162.018398 232.90797 
L 162.337865 228.875545 
L 162.657332 233.717345 
L 162.9768 231.1469 
L 163.296267 229.52346 
L 163.615735 230.12556 
L 163.935202 230.2566 
L 164.574137 230.936454 
L 164.893604 222.53055 
L 165.213072 231.763949 
L 165.532539 227.122107 
L 165.852006 228.800598 
L 166.171474 229.313978 
L 166.490941 231.301549 
L 166.810409 231.526422 
L 167.129876 228.07874 
L 167.449343 232.558627 
L 167.768811 230.790825 
L 168.088278 231.492217 
L 168.407746 230.649522 
L 168.727213 230.293599 
L 169.04668 222.290652 
L 169.366148 233.518058 
L 169.685615 234.995587 
L 170.005083 233.115243 
L 170.32455 228.670898 
L 170.644017 231.772248 
L 170.963485 231.53799 
L 171.282952 233.411257 
L 171.60242 233.015894 
L 171.921887 232.885068 
L 172.241354 232.595251 
L 172.560822 231.333066 
L 172.880289 231.476546 
L 173.199757 223.611347 
L 173.519224 229.681957 
L 173.838691 233.513997 
L 174.158159 228.618832 
L 174.477626 232.362132 
L 174.797094 230.41639 
L 175.116561 231.004751 
L 175.436028 231.897535 
L 175.755496 229.635685 
L 176.074963 232.671189 
L 176.394431 230.684616 
L 176.713898 232.19793 
L 177.033365 229.434445 
L 177.6723 231.00062 
L 177.991768 233.990514 
L 178.311235 232.697852 
L 178.630702 232.27501 
L 178.95017 220.067727 
L 179.269637 232.868812 
L 179.589105 235.075872 
L 180.228039 228.989042 
L 180.547507 236.071527 
L 180.866974 228.67733 
L 181.186442 231.918663 
L 181.505909 232.841642 
L 181.825376 231.842224 
L 182.144844 232.368282 
L 182.464311 234.812905 
L 182.783779 233.149662 
L 183.103246 229.024245 
L 183.422713 222.236533 
L 183.742181 231.333363 
L 184.061648 235.066461 
L 184.700583 227.770419 
L 185.020051 231.563589 
L 185.658985 232.931237 
L 185.978453 231.681205 
L 186.29792 232.330327 
L 186.617388 233.466348 
L 186.936855 233.545344 
L 187.256322 226.602744 
L 187.57579 235.276371 
L 187.895257 229.752421 
L 188.214725 220.135563 
L 188.534192 230.956803 
L 188.853659 229.96402 
L 189.173127 229.621138 
L 189.492594 231.491828 
L 189.812062 230.916539 
L 190.131529 234.640927 
L 190.450996 231.060416 
L 190.770464 233.483175 
L 191.089931 186.799275 
L 191.409399 229.588123 
L 191.728866 232.672365 
L 192.048333 231.494114 
L 192.367801 198.867418 
L 192.687268 237.235516 
L 193.006736 222.191434 
L 193.326203 230.994951 
L 193.64567 231.755881 
L 193.965138 233.643786 
L 194.284605 233.187552 
L 194.604073 235.756849 
L 194.92354 233.549088 
L 195.243007 234.422816 
L 195.562475 233.245762 
L 195.881942 232.767027 
L 196.20141 233.879565 
L 196.520877 230.670947 
L 196.840344 229.054803 
L 197.159812 233.003354 
L 197.479279 232.247561 
L 197.798747 230.224391 
L 198.118214 231.087225 
L 198.437681 233.80493 
L 198.757149 232.744308 
L 199.076616 230.662163 
L 199.396084 227.499925 
L 199.715551 233.982369 
L 200.035018 230.960086 
L 200.354486 234.930034 
L 200.673953 232.603933 
L 200.993421 232.827188 
L 201.312888 232.040488 
L 201.632355 233.603999 
L 201.951823 233.569828 
L 202.27129 232.231717 
L 202.590758 232.795202 
L 202.910225 229.487637 
L 203.229692 233.077412 
L 203.54916 223.971269 
L 203.868627 232.639245 
L 204.188095 204.725364 
L 204.507562 210.241117 
L 204.827029 232.374885 
L 205.146497 219.613194 
L 205.465964 234.160364 
L 205.785432 228.886725 
L 206.104899 218.444004 
L 206.424366 230.880079 
L 206.743834 228.130988 
L 207.063301 232.682946 
L 207.382769 233.154318 
L 207.702236 231.819014 
L 208.021703 278.720404 
L 208.341171 233.795812 
L 208.660638 220.179003 
L 208.980106 232.705259 
L 209.299573 233.453511 
L 209.61904 228.811813 
L 209.938508 229.192089 
L 210.257975 234.460247 
L 210.577443 233.376446 
L 210.89691 231.049312 
L 211.216377 233.157027 
L 211.535845 211.738335 
L 211.855312 231.60828 
L 212.17478 230.702815 
L 212.494247 233.899332 
L 212.813714 229.620653 
L 213.133182 234.622299 
L 213.133182 234.622299 
" clip-path="url(#pb4b4e7d99d)" style="fill: none; stroke: #c0392b; stroke-opacity: 0.9; stroke-linecap: square"/>
   </g>
   <g id="line2d_65">
    <path d="M 47.09 232.145253 
L 221.04 232.145253 
" clip-path="url(#pb4b4e7d99d)" style="fill: none; stroke-dasharray: 0.8,1.32; stroke-dashoffset: 0; stroke: #808080; stroke-opacity: 0.7; stroke-width: 0.8"/>
   </g>
   <g id="patch_6">
    <path d="M 47.09 284.2 
L 47.09 163.648889 
" style="fill: none; stroke: #000000; stroke-width: 0.8; stroke-linejoin: miter; stroke-linecap: square"/>
   </g>
   <g id="patch_7">
    <path d="M 47.09 284.2 
L 221.04 284.2 
" style="fill: none; stroke: #000000; stroke-width: 0.8; stroke-linejoin: miter; stroke-linecap: square"/>
   </g>
   <g id="text_21">
    <!-- Chat vs. Math (Cos Sim) -->
    <g transform="translate(55.7875 182.344625) scale(0.1 -0.1)">
     <defs>
      <path id="TimesNewRomanPS-BoldMT-76" d="M 1534 -88 
L 550 2178 
Q 372 2588 272 2697 
Q 200 2778 59 2806 
L 59 2922 
L 1613 2922 
L 1613 2806 
Q 1466 2806 1413 2753 
Q 1338 2684 1338 2591 
Q 1338 2475 1475 2156 
L 1956 1059 
L 2341 2006 
Q 2506 2413 2506 2581 
Q 2506 2678 2436 2739 
Q 2366 2800 2188 2806 
L 2188 2922 
L 3144 2922 
L 3144 2806 
Q 3006 2788 2918 2703 
Q 2831 2619 2656 2206 
L 1681 -88 
L 1534 -88 
z
" transform="scale(0.015625)"/>
      <path id="TimesNewRomanPS-BoldMT-2e" d="M 800 963 
Q 1019 963 1170 809 
Q 1322 656 1322 441 
Q 1322 225 1169 73 
Q 1016 -78 800 -78 
Q 584 -78 432 73 
Q 281 225 281 441 
Q 281 656 432 809 
Q 584 963 800 963 
z
" transform="scale(0.015625)"/>
     </defs>
     <use xlink:href="#TimesNewRomanPS-BoldMT-43"/>
     <use xlink:href="#TimesNewRomanPS-BoldMT-68" x="72.216797"/>
     <use xlink:href="#TimesNewRomanPS-BoldMT-61" x="127.832031"/>
     <use xlink:href="#TimesNewRomanPS-BoldMT-74" x="177.832031"/>
     <use xlink:href="#TimesNewRomanPS-BoldMT-20" x="211.132812"/>
     <use xlink:href="#TimesNewRomanPS-BoldMT-76" x="236.132812"/>
     <use xlink:href="#TimesNewRomanPS-BoldMT-73" x="286.132812"/>
     <use xlink:href="#TimesNewRomanPS-BoldMT-2e" x="325.048828"/>
     <use xlink:href="#TimesNewRomanPS-BoldMT-20" x="350.048828"/>
     <use xlink:href="#TimesNewRomanPS-BoldMT-4d" x="375.048828"/>
     <use xlink:href="#TimesNewRomanPS-BoldMT-61" x="469.433594"/>
     <use xlink:href="#TimesNewRomanPS-BoldMT-74" x="519.433594"/>
     <use xlink:href="#TimesNewRomanPS-BoldMT-68" x="552.734375"/>
     <use xlink:href="#TimesNewRomanPS-BoldMT-20" x="608.349609"/>
     <use xlink:href="#TimesNewRomanPS-BoldMT-28" x="633.349609"/>
     <use xlink:href="#TimesNewRomanPS-BoldMT-43" x="666.650391"/>
     <use xlink:href="#TimesNewRomanPS-BoldMT-6f" x="738.867188"/>
     <use xlink:href="#TimesNewRomanPS-BoldMT-73" x="788.867188"/>
     <use xlink:href="#TimesNewRomanPS-BoldMT-20" x="827.783203"/>
     <use xlink:href="#TimesNewRomanPS-BoldMT-53" x="852.783203"/>
     <use xlink:href="#TimesNewRomanPS-BoldMT-69" x="908.398438"/>
     <use xlink:href="#TimesNewRomanPS-BoldMT-6d" x="936.181641"/>
     <use xlink:href="#TimesNewRomanPS-BoldMT-29" x="1019.482422"/>
    </g>
   </g>
  </g>
 </g>
 <defs>
  <clipPath id="p2ca2578bca">
   <rect x="47.09" y="12.96" width="173.95" height="120.551111"/>
  </clipPath>
  <clipPath id="pb4b4e7d99d">
   <rect x="47.09" y="163.648889" width="173.95" height="120.551111"/>
  </clipPath>
 </defs>
</svg>
